<?xml version="1.0" standalone="no"?>
<!DOCTYPE svg PUBLIC "-//W3C//DTD SVG 20010904//EN"
 "http://www.w3.org/TR/2001/REC-SVG-20010904/DTD/svg10.dtd">
<svg version="1.0" xmlns="http://www.w3.org/2000/svg"
 width="1493.000000pt" height="1493.000000pt" viewBox="0 0 1493.000000 1493.000000"
 preserveAspectRatio="xMidYMid meet">
<metadata>
Created by potrace 1.11, written by Peter Selinger 2001-2013
</metadata>
<g transform="translate(0.000000,1493.000000) scale(0.100000,-0.100000)"
fill="#000000" stroke="none">
<path d="M1568 11503 c-497 -747 -912 -1370 -921 -1384 l-17 -26 202 -135
c112 -74 215 -142 230 -152 l27 -18 920 1381 c507 760 921 1384 921 1388 0 8
-440 303 -451 303 -3 0 -413 -611 -911 -1357z"/>
<path d="M12421 12715 c-117 -79 -218 -148 -223 -153 -6 -6 138 -231 411 -641
l421 -631 228 151 c125 84 228 152 229 153 4 3 -837 1261 -844 1263 -5 1 -104
-63 -222 -142z"/>
<path d="M2243 11016 l-922 -1384 230 -153 c126 -83 231 -150 233 -148 2 2
418 626 924 1385 l921 1382 -227 151 c-125 83 -230 151 -232 151 -3 0 -420
-623 -927 -1384z"/>
<path d="M11719 12247 l-226 -152 920 -1380 c506 -759 921 -1382 923 -1384 2
-2 107 65 233 148 l230 153 -922 1384 c-507 761 -924 1383 -927 1383 -3 0
-107 -69 -231 -152z"/>
<path d="M2940 10555 c-508 -762 -921 -1387 -919 -1389 15 -12 433 -288 444
-292 17 -7 1861 2754 1848 2766 -7 7 -414 278 -439 293 -7 4 -370 -531 -934
-1378z"/>
<path d="M11040 11793 c-118 -79 -221 -148 -229 -152 -10 -6 93 -167 408 -639
232 -348 423 -632 426 -632 3 0 107 68 231 150 151 101 222 155 217 163 -16
27 -826 1243 -832 1248 -3 4 -103 -58 -221 -138z"/>
<path d="M13425 11214 c-121 -81 -224 -150 -228 -154 -5 -4 181 -292 413 -640
l421 -632 27 18 c256 167 430 289 425 298 -14 23 -826 1241 -832 1248 -4 4
-106 -58 -226 -138z"/>
<path d="M12040 10294 c-118 -80 -221 -149 -229 -153 -18 -11 823 -1275 844
-1267 11 4 429 280 444 292 3 3 -840 1276 -843 1273 -1 0 -98 -65 -216 -145z"/>
<path d="M4656 9108 c-51 -87 -167 -337 -211 -453 -89 -236 -156 -503 -192
-770 -13 -98 -17 -200 -17 -410 0 -304 9 -404 64 -675 100 -498 340 -1008 666
-1415 113 -141 358 -386 499 -499 515 -411 1127 -662 1775 -726 157 -15 523
-13 675 5 655 77 1226 312 1730 712 140 111 396 366 509 508 332 417 458 738
458 1165 0 443 -163 847 -466 1158 -623 641 -1619 684 -2295 100 -103 -89
-188 -186 -306 -349 -278 -385 -652 -623 -1100 -699 -113 -19 -154 -22 -320
-17 -137 4 -216 11 -284 26 -669 145 -1169 651 -1303 1322 -33 166 -33 454 0
618 27 131 80 298 123 383 34 68 31 77 -5 16z"/>
<path d="M2243 5932 c-123 -81 -221 -152 -219 -158 4 -12 1822 -2742 1835
-2756 5 -6 421 261 454 292 9 8 -1827 2770 -1841 2770 -4 0 -107 -66 -229
-148z"/>
<path d="M12220 5450 c-232 -348 -420 -633 -418 -635 16 -14 448 -295 455
-295 9 1 848 1258 842 1264 -15 12 -433 288 -444 292 -9 4 -148 -195 -435
-626z"/>
<path d="M1548 5469 l-227 -151 421 -632 c231 -347 422 -632 423 -634 5 -5
455 297 455 306 0 9 -833 1261 -840 1262 -3 0 -107 -68 -232 -151z"/>
<path d="M12916 4989 c-248 -372 -416 -633 -410 -638 14 -13 448 -301 450
-298 1 1 191 286 422 633 l421 632 -227 151 c-125 83 -230 151 -232 151 -3 0
-194 -284 -424 -631z"/>
<path d="M860 5010 c-124 -83 -224 -155 -222 -160 2 -11 1818 -2738 1833
-2754 8 -9 458 282 459 297 0 7 -1837 2767 -1843 2767 -1 0 -103 -68 -227
-150z"/>
<path d="M13610 4530 c-232 -348 -418 -636 -413 -640 33 -31 449 -298 454
-292 6 7 818 1225 832 1248 5 9 -169 131 -425 298 l-27 18 -421 -632z"/>
<path d="M11219 3949 c-231 -347 -419 -632 -417 -634 2 -1 105 -70 229 -153
l227 -151 404 607 c222 334 412 619 422 634 l18 27 -226 150 c-124 83 -228
151 -231 151 -3 0 -194 -284 -426 -631z"/>
<path d="M2552 3969 c-147 -99 -222 -155 -219 -164 5 -10 821 -1240 833 -1254
2 -2 107 65 233 148 l230 153 -422 634 c-232 348 -424 633 -427 633 -3 0 -105
-68 -228 -150z"/>
<path d="M11914 3487 l-421 -632 229 -153 c127 -85 231 -152 233 -150 13 16
828 1243 832 1253 3 9 -73 65 -221 164 -124 83 -227 151 -228 151 -2 0 -192
-285 -424 -633z"/>
<path d="M12610 3030 c-231 -346 -420 -632 -420 -635 0 -12 453 -306 460 -298
13 14 840 1257 837 1259 -1 1 -104 69 -229 153 l-228 151 -420 -630z"/>
</g>
</svg>
